<svg data-v-2cb57da0="" version="1.0" xmlns="http://www.w3.org/2000/svg" xmlns:xlink="http://www.w3.org/1999/xlink" width="100%" height="100%" viewBox="0 0 340.000000 250.000000" preserveAspectRatio="xMidYMid meet" color-interpolation-filters="sRGB" style="margin: auto;"><rect data-v-2cb57da0="" x="0" y="0" width="100%" height="100%" fill="#fefefd" fill-opacity="1" class="background"></rect> <rect data-v-2cb57da0="" x="0" y="0" width="100%" height="100%" fill="url(#watermark)" fill-opacity="1" class="watermarklayer"></rect> <g data-v-2cb57da0="" fill="#304953" class="icon-text-wrapper icon-svg-group iconsvg" transform="translate(69.02999877929688,93.80379486083984)"><g class="iconsvg-imagesvg" transform="translate(0,1.1962051391601562)"><g><rect fill="#304953" fill-opacity="0" stroke-width="2" x="0" y="0" width="60" height="60" class="image-rect"></rect> <svg filter="url(#colors5609282042)" x="0" y="0" width="60" height="60" filtersec="colorsf234518314" class="image-svg-svg primary" style="overflow: visible;"><svg xmlns="http://www.w3.org/2000/svg" viewBox="0 0 48 48" x="0px" y="0px"><title>05-Human resources</title><g data-name="05-Human resources"><path d="M46,39a1,1,0,0,1-1,1H3a1,1,0,0,1-1-1V15a1,1,0,0,1,1-1H6V12H3a3,3,0,0,0-3,3V39a3,3,0,0,0,3,3H15.382l-2,4H11v2H37V46H34.618l-2-4H45a3,3,0,0,0,3-3V25H46ZM32.382,46H15.618l2-4H30.382Z"></path><path d="M36,9V7a3,3,0,0,0-3-3H31V6h2a1,1,0,0,1,1,1V9Z"></path><rect x="27" y="4" width="2" height="2"></rect><path d="M29,20V14a3,3,0,0,0-3-3H22a3,3,0,0,0-3,3v2H16v2h3v2a5,5,0,0,0,10,0Zm-8-6a1,1,0,0,1,1-1h4a1,1,0,0,1,1,1v2H21Zm3,9a3,3,0,0,1-3-3V18h6v2A3,3,0,0,1,24,23Z"></path><path d="M6,35v2H42V35H40V27H38v8H33V30a5.006,5.006,0,0,0-5-5H20a5.006,5.006,0,0,0-5,5v5H10V10h7a1,1,0,0,0,1-1V2H35a3,3,0,0,1,3,3V9h2V5a5.006,5.006,0,0,0-5-5H17a1,1,0,0,0-.707.293l-8,8A1,1,0,0,0,8,9V35ZM11.414,8,16,3.414V8ZM17,30a3,3,0,0,1,3-3h8a3,3,0,0,1,3,3v5H29V32H27v3H21V32H19v3H17Z"></path><path d="M45,11H35a3,3,0,0,0-3,3v6a3,3,0,0,0,3,3h1v2a1,1,0,0,0,1.707.707L40.414,23H45a3,3,0,0,0,3-3V14A3,3,0,0,0,45,11Zm1,9a1,1,0,0,1-1,1H40a1,1,0,0,0-.707.293L38,22.586V22a1,1,0,0,0-1-1H35a1,1,0,0,1-1-1V14a1,1,0,0,1,1-1H45a1,1,0,0,1,1,1Z"></path><rect x="36" y="16" width="8" height="2"></rect></g></svg></svg> <defs><filter id="colors5609282042"><feColorMatrix type="matrix" values="0 0 0 0 0.1875  0 0 0 0 0.28515625  0 0 0 0 0.32421875  0 0 0 1 0" class="icon-fecolormatrix"></feColorMatrix></filter> <filter id="colorsf234518314"><feColorMatrix type="matrix" values="0 0 0 0 0.99609375  0 0 0 0 0.99609375  0 0 0 0 0.99609375  0 0 0 1 0" class="icon-fecolormatrix"></feColorMatrix></filter> <filter id="colorsb790187854"><feColorMatrix type="matrix" values="0 0 0 0 0  0 0 0 0 0  0 0 0 0 0  0 0 0 1 0" class="icon-fecolormatrix"></feColorMatrix></filter></defs></g></g> <g transform="translate(67,0)"><g data-gra="path-name" fill-rule="" class="tp-name iconsvg-namesvg" transform="translate(0,0)"><g transform="scale(1)"><g><path d="M19.44-36.34L4.62-36.34Q4.55-36.34 4.55-36.34L4.55-36.34 4.55-45.44Q4.55-45.5 4.62-45.5L4.62-45.5 43.42-45.5Q43.42-45.5 43.42-45.44L43.42-45.44 43.42-36.34Q43.42-36.34 43.42-36.34L43.42-36.34 28.6-36.34 28.6 0Q28.6 0.07 28.54 0.07L28.54 0.07 19.44 0.07Q19.44 0.07 19.44 0L19.44 0 19.44-36.34ZM68.71 0.07L52.65 0.07Q52.59 0.07 52.59 0L52.59 0 52.59-45.44Q52.59-45.5 52.65-45.5L52.65-45.5 68.71-45.5Q73.39-45.5 77.55-43.71 81.71-41.93 84.79-38.84 87.88-35.75 89.67-31.59 91.46-27.43 91.46-22.75L91.46-22.75Q91.46-18 89.67-13.88 87.88-9.75 84.79-6.63 81.71-3.51 77.55-1.72 73.39 0.07 68.71 0.07L68.71 0.07ZM61.75-36.34L61.75-9.17 68.71-9.17Q71.5-9.17 73.97-10.21 76.44-11.25 78.29-13.1 80.15-14.95 81.22-17.42 82.29-19.89 82.29-22.75L82.29-22.75Q82.29-25.55 81.22-28.02 80.15-30.48 78.29-32.34 76.44-34.19 73.97-35.26 71.5-36.34 68.71-36.34L68.71-36.34 61.75-36.34ZM139.49-27.69L139.49-27.69Q139.49-23.21 137.38-19.27 135.27-15.34 131.5-12.87L131.5-12.87Q127.47-10.21 122.59-9.95L122.59-9.95Q122.2-9.88 121.75-9.88L121.75-9.88 109.79-9.88 109.79 0Q109.79 0.07 109.79 0.07L109.79 0.07 100.69 0.07Q100.62 0.07 100.62 0L100.62 0 100.62-45.44Q100.62-45.5 100.69-45.5L100.69-45.5 121.75-45.5Q125.39-45.5 128.63-44.1 131.88-42.7 134.29-40.3 136.69-37.9 138.09-34.65 139.49-31.39 139.49-27.69ZM109.79-36.34L109.79-19.11 121.75-19.11Q124.48-19.11 126.69-20.67L126.69-20.67Q128.38-21.91 129.35-23.76 130.33-25.61 130.33-27.69L130.33-27.69Q130.33-29.51 129.64-31.07 128.96-32.63 127.79-33.8 126.62-34.97 125.06-35.65 123.5-36.34 121.75-36.34L121.75-36.34 109.79-36.34Z" transform="translate(-4.550000190734863, 45.5)"></path></g> <!----> <!----> <!----> <!----> <!----> <!----> <!----></g></g> <g data-gra="path-slogan" fill-rule="" class="tp-slogan iconsvg-slogansvg" fill="#304953" transform="translate(5,51.56999969482422)"><rect x="0" height="1" y="4.911705493927002" width="35.953147888183594"></rect> <rect height="1" y="4.911705493927002" width="35.953147888183594" x="88.98685455322266"></rect> <g transform="translate(38.953147888183594,0)"><g transform="scale(1)"><path d="M4.70-9.89L4.70-9.89Q4.85-9.95 4.92-9.86Q4.99-9.78 5.02-9.46Q5.05-9.13 5.06-8.48L5.06-8.48Q5.08-7.73 5.11-7.31Q5.15-6.90 5.31-6.72Q5.47-6.54 5.83-6.50Q6.19-6.46 6.85-6.44L6.85-6.44Q7.57-6.43 7.90-6.41Q8.23-6.38 8.33-6.34Q8.44-6.29 8.46-6.18L8.46-6.18Q8.48-6.06 8.39-5.99Q8.29-5.93 7.95-5.90Q7.61-5.88 6.89-5.86L6.89-5.86Q6.22-5.84 5.85-5.79Q5.48-5.74 5.32-5.51Q5.16-5.28 5.12-4.76Q5.09-4.25 5.08-3.31L5.08-3.31Q5.08-2.36 5.09-1.78Q5.10-1.19 5.20-0.86Q5.30-0.54 5.56-0.41Q5.81-0.28 6.27-0.25Q6.73-0.22 7.48-0.20L7.48-0.20Q8.17-0.19 8.52-0.17Q8.87-0.16 8.99-0.11Q9.11-0.07 9.12 0.02L9.12 0.02Q9.14 0.14 9.01 0.21Q8.88 0.28 8.45 0.31Q8.02 0.35 7.15 0.36Q6.28 0.37 4.81 0.37L4.81 0.37Q3.37 0.37 2.51 0.36Q1.64 0.35 1.21 0.32Q0.77 0.29 0.62 0.22Q0.48 0.16 0.48 0.05L0.48 0.05Q0.48-0.05 0.59-0.10Q0.70-0.14 1.05-0.17Q1.40-0.19 2.11-0.20L2.11-0.20Q2.87-0.22 3.31-0.25Q3.74-0.28 3.97-0.37Q4.19-0.46 4.27-0.64Q4.36-0.82 4.40-1.12L4.40-1.12Q4.44-1.33 4.46-1.74Q4.48-2.15 4.48-2.64Q4.49-3.13 4.48-3.61Q4.46-4.09 4.45-4.48Q4.43-4.87 4.39-5.06L4.39-5.06Q4.34-5.34 4.27-5.49Q4.19-5.64 3.99-5.72Q3.79-5.80 3.38-5.83Q2.98-5.86 2.27-5.87L2.27-5.87Q1.80-5.88 1.56-5.90Q1.32-5.93 1.24-5.98Q1.15-6.04 1.13-6.13L1.13-6.13Q1.12-6.26 1.21-6.32Q1.31-6.38 1.64-6.41Q1.98-6.43 2.68-6.44L2.68-6.44Q3.35-6.46 3.71-6.50Q4.08-6.54 4.24-6.71Q4.40-6.89 4.44-7.30Q4.48-7.70 4.49-8.46L4.49-8.46Q4.50-9.05 4.52-9.34Q4.54-9.62 4.58-9.74Q4.62-9.85 4.70-9.89ZM12.11-9.70L12.11-9.70Q12.31-9.70 12.73-9.70Q13.15-9.70 13.69-9.70Q14.23-9.70 14.80-9.70Q15.37-9.70 15.88-9.70Q16.39-9.70 16.75-9.69Q17.11-9.68 17.21-9.68L17.21-9.68Q17.88-9.66 18.13-9.61Q18.38-9.55 18.40-9.42L18.40-9.42Q18.42-9.26 18.10-9.21Q17.78-9.16 16.86-9.13L16.86-9.13Q16.69-9.13 16.25-9.13Q15.80-9.12 15.22-9.12Q14.63-9.12 14.00-9.12Q13.37-9.12 12.80-9.13Q12.24-9.13 11.86-9.14Q11.47-9.14 11.39-9.14L11.39-9.14Q10.80-9.17 10.59-9.22Q10.38-9.28 10.36-9.40L10.36-9.40Q10.36-9.50 10.49-9.56Q10.63-9.62 11.02-9.65Q11.40-9.68 12.11-9.70ZM12.84-7.68L12.84-7.68Q13.10-7.69 13.58-7.69Q14.06-7.69 14.59-7.69Q15.12-7.69 15.55-7.68Q15.97-7.67 16.14-7.66L16.14-7.66Q16.57-7.62 16.83-7.55Q17.09-7.49 17.21-7.33Q17.34-7.16 17.38-6.85Q17.42-6.53 17.44-6L17.44-6Q17.45-5.39 17.42-5.00Q17.39-4.62 17.23-4.40Q17.08-4.19 16.70-4.10Q16.33-4.01 15.67-3.99Q15-3.97 13.94-3.98L13.94-3.98Q12.91-4.00 12.34-4.03Q11.76-4.07 11.50-4.22Q11.24-4.37 11.18-4.70Q11.11-5.04 11.10-5.65L11.10-5.65Q11.09-6.34 11.13-6.73Q11.17-7.13 11.34-7.33Q11.51-7.52 11.87-7.59Q12.23-7.66 12.84-7.68ZM15.67-7.09L15.67-7.09Q15.61-7.09 15.36-7.10Q15.11-7.10 14.77-7.10Q14.42-7.10 14.08-7.10Q13.73-7.10 13.46-7.10Q13.20-7.10 13.10-7.10L13.10-7.10Q12.44-7.08 12.13-6.97Q11.82-6.86 11.74-6.56Q11.66-6.25 11.69-5.60L11.69-5.60Q11.71-5.24 11.78-5.04Q11.84-4.84 12.06-4.73Q12.28-4.63 12.73-4.60Q13.19-4.57 13.98-4.56L13.98-4.56Q15.01-4.55 15.60-4.58Q16.19-4.61 16.45-4.73Q16.72-4.85 16.78-5.12Q16.85-5.39 16.85-5.86L16.85-5.86Q16.85-6.37 16.78-6.62Q16.70-6.86 16.46-6.96Q16.21-7.06 15.67-7.09ZM12.24-3.38L12.24-3.38Q12.43-3.48 12.61-3.19Q12.79-2.90 13.04-2.10L13.04-2.10Q13.27-1.34 13.27-1.06Q13.27-0.77 13.03-0.77L13.03-0.77Q12.89-0.77 12.82-0.90Q12.74-1.03 12.58-1.55L12.58-1.55Q12.53-1.72 12.46-1.95Q12.38-2.18 12.32-2.36L12.32-2.36Q12.19-2.78 12.14-2.98Q12.08-3.18 12.11-3.26Q12.14-3.34 12.24-3.38ZM16.37-3.32L16.37-3.32Q16.45-3.34 16.52-3.31L16.52-3.31Q16.63-3.26 16.64-3.14Q16.66-3.01 16.55-2.67Q16.44-2.33 16.18-1.61L16.18-1.61Q15.96-1.00 15.86-0.67Q15.77-0.34 15.87-0.19Q15.97-0.05 16.32-0.02Q16.67 0.01 17.33 0.02L17.33 0.02Q17.94 0.04 18.24 0.05Q18.54 0.07 18.63 0.12Q18.72 0.17 18.72 0.26L18.72 0.26Q18.72 0.36 18.62 0.42Q18.53 0.48 18.25 0.52Q17.98 0.56 17.43 0.58Q16.88 0.60 16.00 0.60Q15.11 0.60 13.79 0.60L13.79 0.60Q12.54 0.60 11.81 0.59Q11.08 0.58 10.71 0.55Q10.34 0.52 10.22 0.46Q10.10 0.41 10.08 0.31L10.08 0.31Q10.07 0.19 10.19 0.14Q10.32 0.08 10.76 0.06Q11.20 0.04 12.10 0.02L12.10 0.02Q12.96 0.01 13.51-0.01Q14.05-0.04 14.38-0.13Q14.71-0.23 14.93-0.46Q15.14-0.70 15.33-1.12Q15.52-1.54 15.79-2.22L15.79-2.22Q15.98-2.69 16.08-2.92Q16.18-3.14 16.24-3.23Q16.31-3.31 16.37-3.32ZM24.66-9.88L24.66-9.88Q24.88-9.97 24.95-9.77Q25.03-9.56 25.04-8.82L25.04-8.82Q25.07-8.16 25.10-7.80Q25.14-7.44 25.30-7.29Q25.45-7.14 25.82-7.10Q26.18-7.07 26.87-7.06L26.87-7.06Q27.43-7.04 27.70-7.02Q27.97-7.00 28.06-6.95Q28.14-6.91 28.14-6.82L28.14-6.82Q28.14-6.71 28.03-6.64Q27.92-6.58 27.62-6.54Q27.31-6.50 26.75-6.49Q26.18-6.48 25.26-6.48L25.26-6.48Q24.20-6.48 23.53-6.47Q22.86-6.46 22.47-6.41Q22.08-6.36 21.91-6.25Q21.73-6.14 21.68-5.96Q21.64-5.78 21.64-5.50L21.64-5.50Q21.64-5.20 21.69-5.02Q21.74-4.84 21.92-4.75Q22.09-4.67 22.46-4.63Q22.84-4.60 23.47-4.58L23.47-4.58Q24.36-4.57 24.91-4.54Q25.45-4.51 25.75-4.41Q26.05-4.31 26.18-4.06Q26.30-3.82 26.33-3.36Q26.35-2.90 26.36-2.17L26.36-2.17Q26.39-0.90 26.36-0.20Q26.33 0.50 26.24 0.74Q26.16 0.98 25.99 0.88L25.99 0.88Q25.92 0.83 25.88 0.67Q25.85 0.50 25.83 0.08Q25.81-0.35 25.80-1.16L25.80-1.16Q25.79-2.05 25.76-2.57Q25.74-3.10 25.67-3.37Q25.60-3.64 25.46-3.74Q25.33-3.85 25.09-3.90L25.09-3.90Q24.88-3.95 24.48-3.97Q24.08-3.98 23.63-3.98Q23.17-3.98 22.78-3.96Q22.39-3.94 22.19-3.89L22.19-3.89Q21.94-3.83 21.79-3.71Q21.65-3.60 21.54-3.30Q21.43-3 21.26-2.39L21.26-2.39Q21-1.39 20.69-0.64Q20.39 0.12 20.12 0.48Q19.86 0.84 19.72 0.65L19.72 0.65Q19.67 0.58 19.71 0.40Q19.75 0.22 19.94-0.28L19.94-0.28Q20.21-0.96 20.39-1.52Q20.58-2.08 20.70-2.64Q20.82-3.20 20.88-3.88Q20.94-4.56 20.97-5.47Q21-6.38 21.01-7.66L21.01-7.66Q21.02-8.53 21.04-8.92Q21.06-9.31 21.13-9.42Q21.19-9.53 21.34-9.53L21.34-9.53Q21.47-9.53 21.52-9.35Q21.56-9.18 21.59-8.52L21.59-8.52Q21.60-8.02 21.61-7.85Q21.62-7.68 21.66-7.54L21.66-7.54Q21.71-7.34 21.83-7.25Q21.95-7.15 22.22-7.12Q22.50-7.08 23.02-7.08L23.02-7.08Q23.53-7.08 23.82-7.12Q24.11-7.15 24.25-7.29Q24.38-7.43 24.42-7.75Q24.46-8.06 24.47-8.64L24.47-8.64Q24.48-9.16 24.50-9.40Q24.52-9.65 24.55-9.74Q24.59-9.84 24.66-9.88ZM31.51-9.12L31.51-9.12Q31.92-9.13 32.50-9.13Q33.07-9.13 33.70-9.13Q34.33-9.13 34.91-9.13Q35.50-9.12 35.93-9.11Q36.36-9.11 36.53-9.10L36.53-9.10Q37.10-9.06 37.31-8.98Q37.51-8.90 37.49-8.72L37.49-8.72Q37.48-8.64 37.35-8.61Q37.22-8.58 36.80-8.56L36.80-8.56Q36.38-8.54 36.15-8.50Q35.92-8.45 35.81-8.28Q35.70-8.11 35.68-7.74Q35.66-7.37 35.66-6.71L35.66-6.71Q35.68-6.13 35.71-5.81Q35.74-5.50 35.86-5.35Q35.99-5.21 36.28-5.17Q36.56-5.14 37.09-5.11L37.09-5.11Q37.63-5.10 37.79-5.04Q37.94-4.98 37.92-4.80L37.92-4.80Q37.91-4.67 37.78-4.62Q37.64-4.57 37.25-4.55L37.25-4.55Q36.50-4.51 36.36-4.49L36.36-4.49Q36.11-4.45 35.97-4.36Q35.83-4.26 35.77-3.96Q35.70-3.66 35.68-3.04Q35.65-2.41 35.65-1.31L35.65-1.31Q35.64-0.37 35.62 0.10Q35.59 0.56 35.54 0.72Q35.48 0.88 35.38 0.90L35.38 0.90Q35.28 0.91 35.22 0.84Q35.16 0.77 35.13 0.49Q35.10 0.22 35.09-0.36Q35.08-0.94 35.06-1.94L35.06-1.94Q35.05-2.88 35.02-3.40Q34.99-3.92 34.87-4.16Q34.75-4.39 34.49-4.45Q34.24-4.50 33.77-4.51L33.77-4.51Q33.29-4.51 33.01-4.49Q32.72-4.46 32.56-4.34Q32.40-4.21 32.30-3.95Q32.20-3.70 32.06-3.23L32.06-3.23Q31.84-2.39 31.62-1.85Q31.40-1.31 31.09-0.80L31.09-0.80Q30.76-0.24 30.39 0.19Q30.02 0.61 29.77 0.76Q29.51 0.91 29.48 0.68L29.48 0.68Q29.47 0.60 29.56 0.46Q29.64 0.32 29.90-0.05L29.90-0.05Q30.23-0.48 30.41-0.76Q30.59-1.03 30.76-1.36L30.76-1.36Q31.07-1.94 31.25-2.57Q31.44-3.19 31.47-3.68Q31.50-4.18 31.33-4.34L31.33-4.34Q31.25-4.44 31.03-4.48Q30.80-4.52 30.28-4.54L30.28-4.54Q29.63-4.56 29.45-4.61Q29.28-4.66 29.28-4.82L29.28-4.82Q29.28-4.99 29.44-5.05Q29.60-5.10 30.19-5.11L30.19-5.11Q30.76-5.14 31.06-5.17Q31.36-5.20 31.48-5.34Q31.61-5.48 31.63-5.83Q31.66-6.18 31.66-6.82L31.66-6.82Q31.66-7.43 31.64-7.77Q31.62-8.11 31.54-8.27Q31.45-8.42 31.27-8.48Q31.08-8.53 30.74-8.54L30.74-8.54Q30.32-8.57 30.13-8.58Q29.94-8.59 29.89-8.62Q29.83-8.64 29.81-8.69L29.81-8.69Q29.70-8.93 30.06-9.02Q30.42-9.11 31.51-9.12ZM34.24-8.52L34.24-8.52Q33.61-8.58 33.10-8.52Q32.58-8.46 32.46-8.32L32.46-8.32Q32.33-8.16 32.28-7.58Q32.23-7.00 32.27-6.12L32.27-6.12Q32.29-5.66 32.37-5.45Q32.45-5.24 32.73-5.19Q33.01-5.14 33.61-5.14L33.61-5.14Q34.12-5.14 34.40-5.17Q34.69-5.21 34.83-5.35Q34.97-5.48 35.01-5.78Q35.05-6.08 35.06-6.60L35.06-6.60Q35.09-7.39 35.03-7.79Q34.98-8.18 34.79-8.33Q34.61-8.48 34.24-8.52ZM39.55-9.88L39.55-9.88Q39.62-9.91 39.76-9.88L39.76-9.88Q39.86-9.83 40.06-9.69Q40.25-9.55 40.46-9.38Q40.67-9.20 40.82-9.05Q40.98-8.89 41.02-8.82L41.02-8.82Q41.11-8.65 40.97-8.52Q40.82-8.39 40.64-8.47L40.64-8.47Q40.57-8.51 40.39-8.65Q40.21-8.78 40.01-8.96Q39.80-9.13 39.64-9.28Q39.48-9.42 39.44-9.47L39.44-9.47Q39.37-9.58 39.40-9.70Q39.43-9.83 39.55-9.88ZM43.68-9.70L43.68-9.70Q45.05-9.72 45.83-9.70Q46.62-9.68 46.96-9.62Q47.29-9.55 47.29-9.42L47.29-9.42Q47.29-9.34 47.23-9.28Q47.16-9.23 46.94-9.20Q46.72-9.17 46.27-9.16Q45.83-9.14 45.07-9.13L45.07-9.13Q44.15-9.12 43.58-9.11Q43.01-9.10 42.71-9Q42.41-8.90 42.29-8.67Q42.18-8.44 42.16-8.00Q42.14-7.56 42.13-6.84L42.13-6.84Q42.12-6.07 42.10-5.51Q42.07-4.96 42.04-4.48Q42-4.01 41.94-3.52L41.94-3.52Q41.83-2.69 41.66-1.93Q41.50-1.18 41.30-0.61Q41.11-0.05 40.93 0.22Q40.75 0.48 40.63 0.32L40.63 0.32Q40.58 0.25 40.61 0.06Q40.63-0.13 40.76-0.66L40.76-0.66Q40.99-1.49 41.14-2.18Q41.28-2.88 41.37-3.58Q41.46-4.28 41.50-5.11Q41.54-5.94 41.56-7.02L41.56-7.02Q41.57-7.87 41.59-8.30Q41.60-8.74 41.64-8.94Q41.68-9.14 41.74-9.26L41.74-9.26Q41.82-9.42 42.01-9.51Q42.20-9.60 42.61-9.64Q43.01-9.68 43.68-9.70ZM44.64-8.74L44.64-8.74Q44.83-8.82 44.93-8.70Q45.02-8.58 44.99-8.29L44.99-8.29Q44.96-8.04 44.99-7.93Q45.02-7.81 45.17-7.78Q45.32-7.75 45.65-7.73L45.65-7.73Q46.25-7.70 46.52-7.66Q46.80-7.62 46.90-7.53Q46.99-7.44 47.04-7.22L47.04-7.22Q47.09-7.06 47.11-6.65Q47.14-6.25 47.14-5.78Q47.14-5.30 47.11-4.90Q47.09-4.49 47.05-4.30L47.05-4.30Q47.00-4.12 46.93-4.02Q46.85-3.92 46.67-3.88Q46.49-3.84 46.13-3.80L46.13-3.80Q45.76-3.77 45.55-3.71Q45.35-3.66 45.25-3.47Q45.16-3.29 45.13-2.86Q45.11-2.44 45.10-1.67L45.10-1.67Q45.08-0.98 45.07-0.56Q45.06-0.14 45.03 0.09Q45 0.32 44.95 0.44Q44.89 0.56 44.80 0.66L44.80 0.66Q44.63 0.83 44.32 0.88Q44.00 0.94 43.76 0.87Q43.51 0.80 43.51 0.64L43.51 0.64Q43.51 0.52 43.60 0.46Q43.68 0.41 43.91 0.38L43.91 0.38Q44.18 0.34 44.30 0.29Q44.41 0.25 44.45 0.10Q44.48-0.06 44.50-0.42L44.50-0.42Q44.50-0.55 44.50-0.91Q44.51-1.27 44.51-1.70Q44.51-2.12 44.50-2.46Q44.50-2.80 44.48-2.88L44.48-2.88Q44.45-3.28 44.39-3.46Q44.33-3.65 44.14-3.71Q43.96-3.77 43.56-3.80L43.56-3.80Q43.22-3.84 43.03-3.90Q42.84-3.96 42.76-4.15Q42.67-4.33 42.65-4.72Q42.62-5.11 42.62-5.80L42.62-5.80Q42.62-6.47 42.64-6.84Q42.66-7.21 42.74-7.39Q42.83-7.57 43.00-7.63Q43.18-7.69 43.48-7.72L43.48-7.72Q43.81-7.75 43.97-7.79Q44.12-7.84 44.21-7.96Q44.30-8.08 44.40-8.33L44.40-8.33Q44.48-8.53 44.53-8.62Q44.58-8.71 44.64-8.74ZM45.70-7.12L45.70-7.12Q45.31-7.14 44.87-7.14Q44.44-7.14 44.08-7.12Q43.72-7.09 43.58-7.06L43.58-7.06Q43.20-6.95 43.27-6.52L43.27-6.52Q43.30-6.34 43.40-6.25Q43.50-6.16 43.80-6.13Q44.10-6.10 44.69-6.08L44.69-6.08Q45.47-6.08 45.85-6.11Q46.24-6.14 46.36-6.26Q46.49-6.38 46.49-6.61L46.49-6.61Q46.49-6.89 46.33-6.99Q46.16-7.09 45.70-7.12ZM45.91-5.46L45.91-5.46Q45.86-5.46 45.61-5.47Q45.35-5.47 45.04-5.48Q44.72-5.48 44.46-5.48Q44.20-5.48 44.12-5.47L44.12-5.47Q43.62-5.44 43.46-5.36Q43.30-5.28 43.27-5.04L43.27-5.04Q43.24-4.75 43.34-4.61Q43.45-4.48 43.85-4.43Q44.24-4.39 45.05-4.39L45.05-4.39Q45.70-4.40 46.00-4.44Q46.31-4.48 46.40-4.60Q46.49-4.72 46.48-4.96L46.48-4.96Q46.48-5.21 46.37-5.31Q46.26-5.41 45.91-5.46ZM39.04-6.85L39.04-6.85Q39.12-6.90 39.34-6.80Q39.56-6.71 39.85-6.52Q40.14-6.34 40.40-6.10L40.40-6.10Q40.57-5.95 40.58-5.80Q40.58-5.64 40.47-5.57Q40.36-5.50 40.15-5.59L40.15-5.59Q40.07-5.63 39.89-5.75Q39.71-5.87 39.51-6.01Q39.31-6.14 39.16-6.26Q39-6.37 38.96-6.42L38.96-6.42Q38.87-6.53 38.89-6.67Q38.92-6.80 39.04-6.85ZM40.60-3.72L40.60-3.72Q40.67-3.76 40.75-3.73Q40.82-3.71 40.86-3.64L40.86-3.64Q40.91-3.55 40.86-3.31Q40.81-3.07 40.64-2.57Q40.48-2.06 40.14-1.19L40.14-1.19Q39.88-0.48 39.71-0.12Q39.55 0.24 39.44 0.34Q39.34 0.43 39.22 0.36L39.22 0.36Q39.12 0.30 39.12 0.13Q39.12-0.04 39.26-0.47Q39.41-0.91 39.72-1.78L39.72-1.78Q40.01-2.54 40.17-2.95Q40.33-3.35 40.43-3.52Q40.52-3.68 40.60-3.72ZM46.25-2.96L46.25-2.96Q46.38-3 46.54-2.81Q46.69-2.63 47.00-2.04L47.00-2.04Q47.41-1.27 47.49-0.98Q47.57-0.70 47.38-0.60L47.38-0.60Q47.22-0.53 47.11-0.65Q46.99-0.77 46.75-1.21L46.75-1.21Q46.36-1.94 46.19-2.30Q46.02-2.66 46.05-2.80Q46.08-2.93 46.25-2.96ZM43.22-2.90L43.22-2.90Q43.50-2.98 43.50-2.70Q43.50-2.42 43.22-1.82L43.22-1.82Q42.80-0.90 42.53-0.59Q42.25-0.29 42.08-0.55L42.08-0.55Q42.05-0.62 42.05-0.71Q42.06-0.79 42.16-1.03Q42.26-1.26 42.52-1.76L42.52-1.76Q42.78-2.29 42.90-2.53Q43.02-2.76 43.09-2.83Q43.15-2.89 43.22-2.90Z" transform="translate(-0.48, 9.912999999999998)"></path></g></g></g></g></g><defs v-gra="od"></defs></svg>